<svg width="100" height="100" viewBox="0 0 100 100" xmlns="http://www.w3.org/2000/svg">
<!--배경 원-->
  <circle cx="50" cy="50" r="48" fill="#F5F5F5"/>
<!--책 아이콘-->
  <rect x="35" y="30" width="30" height="40" fill="#3498db"/>
  <rect x="38" y="25" width="24" height="5" fill="#2980b9"/>
<!--대화 말풍선 아이콘-->
  <path d="M60,65 Q70,60 70,50 Q70,40 60,35 L60,50 L45,50 L40,45 L40,60 Q40,70 50,75 Z" fill="#27ae60"/>
  <path d="M30,40 Q40,35 45,40 L45,55 L60,55 Q65,60 65,70 Q65,80 55,85 Z" fill="#2ecc71"/>
<!--일정 관리 아이콘-->
  <circle cx="80" cy="20" r="18" fill="#e74c3c"/>
  <rect x="76" y="10" width="8" height="20" fill="#c0392b"/>
<!--팀 협업 아이콘-->
  <path d="M20,75 Q20,65 25,65 Q30,65 30,75 L50,90 L70,75 Q70,65 75,65 Q80,65 80,75 Z" fill="#f39c12"/>
  <path d="M30,55 Q30,45 35,45 L35,60 L50,60 L55,55 Q55,45 60,45 Q65,45 65,55 Z" fill="#e67e22"/>
</svg>
